HIERARCHY
ROOT hip
{
  OFFSET 0 0 0
  CHANNELS 6 Xposition Yposition Zposition Zrotation Yrotation Xrotation
  JOINT abdomen
  {
    OFFSET 0 20.6881 -0.73152
    CHANNELS 3 Zrotation Xrotation Yrotation
    JOINT chest
    {
      OFFSET 0 11.7043 -0.48768
      CHANNELS 3 Zrotation Xrotation Yrotation
      JOINT neck
      {
        OFFSET 0 22.1894 -2.19456
        CHANNELS 3 Zrotation Xrotation Yrotation
        JOINT head
        {
          OFFSET -0.24384 7.07133 1.2192
          CHANNELS 3 Zrotation Xrotation Yrotation
          JOINT leftEye
          {
            OFFSET 4.14528 8.04674 8.04672
            CHANNELS 3 Zrotation Xrotation Yrotation
            End Site
            {
              OFFSET 1 0 0
            }
          }
          JOINT rightEye
          {
            OFFSET -3.6576 8.04674 8.04672
            CHANNELS 3 Zrotation Xrotation Yrotation
            End Site
            {
              OFFSET 1 0 0
            }
          }
        }
      }
      JOINT rCollar
      {
        OFFSET -2.68224 19.2634 -4.8768
        CHANNELS 3 Zrotation Xrotation Yrotation
        JOINT rShldr
        {
          OFFSET -8.77824 -1.95073 1.46304
          CHANNELS 3 Zrotation Xrotation Yrotation
          JOINT rForeArm
          {
            OFFSET -28.1742 -1.7115 0.48768
            CHANNELS 3 Zrotation Xrotation Yrotation
            JOINT rHand
            {
              OFFSET -22.5879 0.773209 7.07136
              CHANNELS 3 Zrotation Xrotation Yrotation
              JOINT rThumb1
              {
                OFFSET -1.2192 -0.487915 3.41376
                CHANNELS 3 Zrotation Xrotation Yrotation
                JOINT rThumb2
                {
                  OFFSET -3.37035 -0.52449 3.41376
                  CHANNELS 3 Zrotation Xrotation Yrotation
                  End Site
                  {
                    OFFSET -1.78271 -1.18214 1.43049
                  }
                }
              }
              JOINT rIndex1
              {
                OFFSET -7.75947 0.938293 5.60832
                CHANNELS 3 Zrotation Xrotation Yrotation
                JOINT rIndex2
                {
                  OFFSET -2.54057 -0.884171 1.56538
                  CHANNELS 3 Zrotation Xrotation Yrotation
                  End Site
                  {
                    OFFSET -1.62519 -0.234802 1.16502
                  }
                }
              }
              JOINT rMid1
              {
                OFFSET -8.24714 1.18213 3.41376
                CHANNELS 3 Zrotation Xrotation Yrotation
                JOINT rMid2
                {
                  OFFSET -3.10165 -0.590103 1.0647
                  CHANNELS 3 Zrotation Xrotation Yrotation
                  End Site
                  {
                    OFFSET -2.48547 -0.328903 0.83742
                  }
                }
              }
              JOINT rRing1
              {
                OFFSET -8.82822 0.546677 1.51678
                CHANNELS 3 Zrotation Xrotation Yrotation
                JOINT rRing2
                {
                  OFFSET -2.60934 -0.819778 -0.0198488
                  CHANNELS 3 Zrotation Xrotation Yrotation
                  End Site
                  {
                    OFFSET -2.33842 -0.294052 0.168128
                  }
                }
              }
              JOINT rPinky1
              {
                OFFSET -8.27202 -0.0477905 -0.4584
                CHANNELS 3 Zrotation Xrotation Yrotation
                JOINT rPinky2
                {
                  OFFSET -1.82734 -0.647385 -0.700984
                  CHANNELS 3 Zrotation Xrotation Yrotation
                  End Site
                  {
                    OFFSET -1.69225 -0.51767 -0.607171
                  }
                }
              }
            }
          }
        }
      }
      JOINT lCollar
      {
        OFFSET 2.68224 19.2634 -4.8768
        CHANNELS 3 Zrotation Xrotation Yrotation
        JOINT lShldr
        {
          OFFSET 8.77824 -1.95073 1.46304
          CHANNELS 3 Zrotation Xrotation Yrotation
          JOINT lForeArm
          {
            OFFSET 28.1742 -1.7115 0.48768
            CHANNELS 3 Zrotation Xrotation Yrotation
            JOINT lHand
            {
              OFFSET 22.5879 0.773209 7.07136
              CHANNELS 3 Zrotation Xrotation Yrotation
              JOINT lThumb1
              {
                OFFSET 1.2192 -0.487915 3.41376
                CHANNELS 3 Zrotation Xrotation Yrotation
                JOINT lThumb2
                {
                  OFFSET 3.37035 -0.52449 3.41376
                  CHANNELS 3 Zrotation Xrotation Yrotation
                  End Site
                  {
                    OFFSET 1.78271 -1.18214 1.43049
                  }
                }
              }
              JOINT lIndex1
              {
                OFFSET 7.75947 0.938293 5.60832
                CHANNELS 3 Zrotation Xrotation Yrotation
                JOINT lIndex2
                {
                  OFFSET 2.54057 -0.884171 1.56538
                  CHANNELS 3 Zrotation Xrotation Yrotation
                  End Site
                  {
                    OFFSET 1.62519 -0.234802 1.16502
                  }
                }
              }
              JOINT lMid1
              {
                OFFSET 8.24714 1.18213 3.41376
                CHANNELS 3 Zrotation Xrotation Yrotation
                JOINT lMid2
                {
                  OFFSET 3.10165 -0.590103 1.0647
                  CHANNELS 3 Zrotation Xrotation Yrotation
                  End Site
                  {
                    OFFSET 2.48547 -0.328903 0.83742
                  }
                }
              }
              JOINT lRing1
              {
                OFFSET 8.82822 0.546677 1.51678
                CHANNELS 3 Zrotation Xrotation Yrotation
                JOINT lRing2
                {
                  OFFSET 2.60934 -0.819778 -0.0198488
                  CHANNELS 3 Zrotation Xrotation Yrotation
                  End Site
                  {
                    OFFSET 2.33842 -0.294052 0.168128
                  }
                }
              }
              JOINT lPinky1
              {
                OFFSET 8.27202 -0.0477905 -0.4584
                CHANNELS 3 Zrotation Xrotation Yrotation
                JOINT lPinky2
                {
                  OFFSET 1.82734 -0.647385 -0.700984
                  CHANNELS 3 Zrotation Xrotation Yrotation
                  End Site
                  {
                    OFFSET 1.69225 -0.51767 -0.607171
                  }
                }
              }
            }
          }
        }
      }
    }
  }
  JOINT rButtock
  {
    OFFSET -8.77824 4.35084 1.2192
    CHANNELS 3 Zrotation Xrotation Yrotation
    JOINT rThigh
    {
      OFFSET 0 -1.70687 -2.19456
      CHANNELS 3 Zrotation Xrotation Yrotation
      JOINT rShin
      {
        OFFSET 0 -36.8199 0.73152
        CHANNELS 3 Zrotation Xrotation Yrotation
        JOINT rFoot
        {
          OFFSET 0.73152 -45.1104 -5.12064
          CHANNELS 3 Zrotation Xrotation Yrotation
          End Site
          {
            OFFSET -1.1221 -3.69964 12.103
          }
        }
      }
    }
  }
  JOINT lButtock
  {
    OFFSET 8.77824 4.35084 1.2192
    CHANNELS 3 Zrotation Xrotation Yrotation
    JOINT lThigh
    {
      OFFSET 0 -1.70687 -2.19456
      CHANNELS 3 Zrotation Xrotation Yrotation
      JOINT lShin
      {
        OFFSET 0 -36.8199 0.73152
        CHANNELS 3 Zrotation Xrotation Yrotation
        JOINT lFoot
        {
          OFFSET -0.73152 -45.1104 -5.12064
          CHANNELS 3 Zrotation Xrotation Yrotation
          End Site
          {
            OFFSET 1.1221 -3.69964 12.103
          }
        }
      }
    }
  }
}
MOTION
Frames:	4
Frame Time:	0.03333
0.012769412179309074 62.085210611932816 0.1161654028043439 -2.8312911987304688 -2.3180441856384277 7.512010097503662 -2.556483507156372 14.499361038208008 3.810487985610962 2.8538410663604736 -9.663317680358887 1.3271404504776 -5.099699974060059 14.49166488647461 -3.6646666526794434 8.94963264465332 -22.324020385742188 -5.383134841918945 -0.004807208199054003 0.10934397578239441 0.022547276690602303 0.01567528396844864 0.0006633811281062663 0.04004141315817833 0.09561097621917725 -0.06779857724905014 0.041434306651353836 46.24759292602539 39.858341217041016 17.983640670776367 -25.602231979370117 -25.95404052734375 67.98416137695312 -1.5190496444702148 -9.583651542663574 -1.5538461208343506 -0.09804264456033707 0.04508034139871597 -0.02733728289604187 0.07324396073818207 -0.014146734960377216 -0.024385696277022362 -0.027267931029200554 -0.10901231318712234 0.04020283743739128 7.8241963386535645 5.441985130310059 0.42434215545654297 -0.027111852541565895 0.18296797573566437 -0.09148116409778595 2.9706737995147705 0.9137095808982849 0.04214689880609512 0.04303636774420738 -0.027818292379379272 -0.08121807873249054 10.310917854309082 0.81730055809021 -0.020811278373003006 -0.046996984630823135 0.03570377826690674 -0.05924202501773834 2.250530958175659 -0.7599593997001648 -0.23359817266464233 -0.05792484059929848 0.041309330612421036 0.033978331834077835 -54.92513656616211 40.681217193603516 -25.58355712890625 24.85567283630371 -23.33418846130371 -64.77027893066406 2.0040555000305176 -14.90021800994873 2.192052125930786 0.0049590254202485085 0.10695748031139374 -0.06547258794307709 -0.07869067043066025 -0.11299759149551392 0.05053817480802536 0.11682623624801636 -0.0881805345416069 0.07567542046308517 -7.762393951416016 5.380704402923584 -0.37639307975769043 0.021062906831502914 0.06382046639919281 0.00887680146843195 -2.9591281414031982 0.8813367486000061 -0.06627393513917923 -0.02853233367204666 0.029653722420334816 -0.05436810478568077 -10.314949989318848 0.6871882677078247 -0.052421461790800095 -0.030859466642141342 -0.06245170533657074 -0.021348388865590096 -2.2448232173919678 -0.7299709320068359 0.19288723170757294 -0.021863026544451714 -0.032184794545173645 0.052178606390953064 -24.904508590698242 -42.58589553833008 -18.716442108154297 -1.3252133131027222 65.42414855957031 2.663196086883545 -4.63851261138916 -12.131757736206055 -9.784035682678223 -0.09109747409820557 0.02659129910171032 0.044956620782613754 29.82662582397461 -43.60873794555664 21.06400489807129 1.4377673864364624 65.89253997802734 -2.5971193313598633 4.7946038246154785 -12.154010772705078 13.23456859588623
0.05909703785477173 61.95245222503527 0.23767377444778315 -3.233873128890991 -0.023888159543275833 9.41659927368164 -2.408079147338867 14.74116039276123 3.5795910358428955 2.5628511905670166 -9.916034698486328 1.1090747117996216 -4.894317150115967 14.39892578125 -3.6226089000701904 8.688271522521973 -21.961698532104492 -5.472319602966309 0.060758646577596664 0.20621076226234436 -0.018272873014211655 0.03230765834450722 -0.04427466541528702 0.07404199242591858 -0.14445583522319794 -0.10140737146139145 0.07043975591659546 46.471519470214844 39.57557678222656 18.576513290405273 -25.56237030029297 -26.045902252197266 68.16941833496094 -1.5353472232818604 -10.590893745422363 -1.5786365270614624 -0.09145881235599518 0.07377438247203827 0.05108796805143356 0.14650575816631317 -0.0014185989275574684 -0.12699978053569794 0.007340811192989349 -0.15086930990219116 0.08086756616830826 7.714761734008789 5.492208957672119 0.47633984684944153 0.12249990552663803 0.006552655715495348 -0.08821448683738708 2.8876564502716064 0.8560531735420227 0.027609795331954956 0.1390472799539566 -0.07984183728694916 -0.06996161490678787 10.305741310119629 0.7838314175605774 -0.006910409778356552 0.014758268371224403 0.08715054392814636 -0.0714992880821228 2.280292510986328 -0.7383513450622559 -0.22601810097694397 -0.18212395906448364 0.10361188650131226 -0.00040738467941991985 -54.940452575683594 40.7155876159668 -25.668560028076172 24.747852325439453 -23.390766143798828 -65.58240509033203 2.07142972946167 -15.225019454956055 2.298866033554077 0.03295043855905533 0.06968701630830765 0.031436797231435776 0.10274187475442886 -0.06261099874973297 -0.04676548391580582 0.10759438574314117 -0.053584903478622437 0.007817806676030159 -7.7650837898254395 5.369268417358398 -0.3856361210346222 0.07590627670288086 0.07745712250471115 0.07573742419481277 -2.9100937843322754 0.7752541303634644 0.0015925834886729717 0.04027475789189339 0.028076479211449623 0.016918009147047997 -10.207643508911133 0.8184217214584351 -0.037240445613861084 -0.00881012249737978 -0.10129670053720474 0.017721334472298622 -2.271653413772583 -0.7128185629844666 0.2077377289533615 0.02919759973883629 -0.054669611155986786 0.1286766231060028 -25.361343383789062 -41.354312896728516 -19.08011817932129 -1.3269284963607788 64.62120056152344 2.218268632888794 -4.639189720153809 -11.629449844360352 -9.80545711517334 -0.2556038200855255 0.044993944466114044 0.11017873883247375 29.922863006591797 -41.94034194946289 20.603378295898438 1.6407933235168457 66.30391693115234 -2.620511293411255 4.979099273681641 -11.567790031433105 13.04885482788086
0.21696125247014594 53.85292020909984 0.18430486406827204 -15.818144798278809 -33.79805374145508 7.315892696380615 8.958494186401367 8.806468963623047 5.667141437530518 -0.29512596130371094 -8.497429847717285 1.0150690078735352 -0.013757489621639252 11.4694242477417 8.097502708435059 4.194540977478027 -23.176122665405273 17.625932693481445 -0.019370561465620995 0.29642829298973083 0.3280761241912842 -0.046379204839468 -0.12302245199680328 0.24006493389606476 -0.32317933440208435 -0.5009704828262329 -0.05751778185367584 106.14506530761719 49.450679779052734 -48.949188232421875 -27.397186279296875 -42.87174987792969 89.90547943115234 -9.500435829162598 -62.64415740966797 -16.35691261291504 -0.024870656430721283 0.5692536234855652 0.08721841871738434 0.01590084843337536 0.4241650700569153 -0.02916664071381092 0.22813650965690613 0.03474050015211105 -0.1248796358704567 7.609683990478516 5.24627161026001 0.3580867648124695 0.31966277956962585 0.43916836380958557 -0.23144155740737915 2.8017899990081787 0.7755288481712341 0.1355644315481186 0.3687245547771454 -0.15589474141597748 0.27700889110565186 10.061894416809082 0.9672719836235046 0.09132123738527298 -0.24232511222362518 -0.15383204817771912 -0.2232019603252411 2.4189417362213135 -0.37821707129478455 -0.3511376976966858 -0.2843863368034363 0.1663604974746704 0.1730431467294693 -61.82166290283203 -4.177121639251709 -55.98576736450195 11.396721839904785 -5.753835201263428 -18.775850296020508 3.155046224594116 47.41979217529297 -9.287970542907715 0.00640810327604413 -0.23167389631271362 0.38940098881721497 0.10977692157030106 -0.023005034774541855 0.10364644229412079 -0.11611071974039078 -0.1874784231185913 0.06341416388750076 -7.587082386016846 5.242227077484131 -0.31159478425979614 -0.002544217510148883 0.027060966938734055 -0.13321304321289062 -3.1929163932800293 0.48749563097953796 0.11653981357812881 -0.20422159135341644 0.16407673060894012 0.2528435289859772 -10.191166877746582 0.6301297545433044 0.10803204029798508 -0.11881677806377411 -0.12898853421211243 0.2196807563304901 -1.8899449110031128 -0.9417873620986938 0.028172211721539497 0.05261310562491417 0.20276960730552673 0.07007138431072235 -8.594786643981934 0.5983284711837769 -6.789947986602783 0.0843140259385109 42.95293045043945 1.5304038524627686 -11.595831871032715 -20.74011993408203 -32.09745788574219 0.3058438301086426 0.23457647860050201 -0.39894765615463257 80.0257797241211 -54.39431381225586 69.89429473876953 2.107285261154175 76.07592010498047 -1.6433106660842896 -1.4035046100616455 2.207777500152588 -2.623349189758301
0.36917916847816745 53.94284647971223 0.10960847456198454 -13.780274391174316 -30.567058563232422 10.50842571258545 7.877012729644775 8.64431381225586 3.1197264194488525 1.0720601081848145 -8.758374214172363 0.04820225015282631 -0.7268173098564148 11.676679611206055 7.962547302246094 5.200022220611572 -23.522172927856445 15.754855155944824 0.35069161653518677 0.24952645599842072 0.4854409992694855 -0.29051682353019714 -0.09602092206478119 -0.07689845561981201 0.12319384515285492 -0.26300185918807983 0.2945690453052521 107.95845794677734 43.456138610839844 -55.73157501220703 -26.61454200744629 -43.3369255065918 91.7265625 -14.730456352233887 -69.18238830566406 -22.123090744018555 -0.325022429227829 0.7032338976860046 -0.4507296681404114 -0.030111009255051613 -0.09277340024709702 -0.14267146587371826 -0.1497827023267746 0.0004544939729385078 0.16105413436889648 7.323387622833252 5.2139153480529785 0.04888037219643593 0.5773917436599731 0.27273088693618774 -0.14755302667617798 2.758733034133911 0.500286877155304 0.05936287343502045 -0.03942977637052536 0.14317379891872406 -0.4216340482234955 10.09103012084961 0.974139928817749 -0.19322407245635986 0.3026712238788605 0.11712726205587387 -0.17725202441215515 2.5926737785339355 -0.7561821937561035 -0.4570664167404175 -0.5129228830337524 0.3703593313694 0.24717207252979279 -67.47421264648438 -15.932477951049805 -69.4605941772461 7.547939300537109 -4.381982803344727 -11.8663330078125 11.382734298706055 64.95518493652344 -17.897499084472656 -0.1550561636686325 0.2661174535751343 0.2001042515039444 -0.14645662903785706 -0.27238142490386963 0.09215887635946274 0.0362233929336071 -0.2606979310512543 0.08443265408277512 -7.615936279296875 5.22064733505249 -0.2624925971031189 -0.03705383837223053 0.1858109086751938 0.03209998086094856 -3.1074633598327637 0.701596736907959 0.2358185201883316 0.0697459802031517 -0.1145825982093811 -0.2143990695476532 -9.936592102050781 0.5707171559333801 0.1534101814031601 -0.39625614881515503 -0.01962759532034397 -0.38776296377182007 -2.226907968521118 -0.5289402008056641 0.35346993803977966 -0.11034982651472092 -0.2769007086753845 0.18186438083648682 -13.260151863098145 4.7928643226623535 -4.139005184173584 -0.16041088104248047 39.10091781616211 2.1463284492492676 -10.351593017578125 -17.69078254699707 -30.620155334472656 0.03818705305457115 -0.11484203487634659 -0.13109637796878815 74.92052459716797 -52.951454162597656 65.56533813476562 1.032184362411499 70.13153839111328 -0.4758472740650177 -0.2149895876646042 1.6124038696289062 -2.608259677886963
